<svg width="16" height="16" viewBox="0 0 16 16" fill="none" xmlns="http://www.w3.org/2000/svg">
<g clip-path="url(#clip0_1551_22050)">
<path d="M6.66675 12.6667C5.48006 12.6667 4.32002 12.3148 3.33333 11.6555C2.34663 10.9962 1.5776 10.0591 1.12347 8.96279C0.669348 7.86643 0.550528 6.66003 0.782039 5.49615C1.01355 4.33226 1.58499 3.26316 2.42411 2.42405C3.26323 1.58493 4.33232 1.01349 5.49621 0.781978C6.66009 0.550467 7.86649 0.669287 8.96285 1.12341C10.0592 1.57754 10.9963 2.34657 11.6556 3.33327C12.3149 4.31996 12.6667 5.48 12.6667 6.66669C12.6648 8.25739 12.032 9.78239 10.9072 10.9072C9.78245 12.032 8.25745 12.6647 6.66675 12.6667ZM6.66675 2.00002C5.74377 2.00002 4.84152 2.27372 4.07409 2.7865C3.30666 3.29928 2.70852 4.02811 2.35531 4.88083C2.0021 5.73356 1.90969 6.67187 2.08975 7.57711C2.26982 8.48236 2.71427 9.31388 3.36692 9.96652C4.01956 10.6192 4.85108 11.0636 5.75633 11.2437C6.66157 11.4238 7.59988 11.3313 8.45261 10.9781C9.30533 10.6249 10.0342 10.0268 10.5469 9.25935C11.0597 8.49192 11.3334 7.58967 11.3334 6.66669C11.332 5.42945 10.8399 4.24328 9.96502 3.36842C9.09016 2.49355 7.90399 2.00143 6.66675 2.00002Z" fill="#444444"/>
<path d="M4.66683 6.66671H3.3335C3.33455 5.78298 3.68608 4.93575 4.31098 4.31085C4.93587 3.68596 5.7831 3.33443 6.66683 3.33337V4.66671C6.1364 4.66671 5.62769 4.87742 5.25262 5.25249C4.87754 5.62757 4.66683 6.13627 4.66683 6.66671Z" fill="#444444"/>
<path d="M15.1382 14.1954L12.3008 11.358C12.0159 11.7003 11.7004 12.0158 11.3582 12.3007L14.1955 15.138C14.3212 15.2595 14.4896 15.3267 14.6644 15.3251C14.8392 15.3236 15.0064 15.2535 15.13 15.1299C15.2536 15.0063 15.3238 14.8391 15.3253 14.6643C15.3268 14.4895 15.2596 14.3211 15.1382 14.1954Z" fill="#444444"/>
</g>
<defs>
<clipPath id="clip0_1551_22050">
<rect width="16" height="16" fill="white"/>
</clipPath>
</defs>
</svg>
